<?xml version="1.0" encoding="UTF-8" standalone="no"?>
<svg width="96px" height="93px" viewBox="0 0 96 93" version="1.1" xmlns="http://www.w3.org/2000/svg" xmlns:xlink="http://www.w3.org/1999/xlink">
    <!-- Generator: Sketch 39.1 (31720) - http://www.bohemiancoding.com/sketch -->
    <title>Slice 1</title>
    <desc>Created with Sketch.</desc>
    <defs></defs>
    <g id="Page-1" stroke="none" stroke-width="1" fill="none" fill-rule="evenodd">
        <g id="passengerAirport" transform="translate(4.000000, 2.000000)">
            <g id="Page-1">
                <g id="pin-shadow-01" opacity="0.24" transform="translate(9.000000, 68.000000)" fill="#000000">
                    <path d="M50.2202719,0.496060445 C29.4502719,-0.973939555 8.0002719,0.916060445 2.2202719,4.93606044 C-3.5597281,8.95606044 1.5502719,13.0760604 22.2202719,19.5560604 L23.5302719,19.6460604 C57.2302719,17.0260604 72.1002719,14.2760604 77.7902719,10.2960604 C83.4802719,6.31606044 70.9902719,1.96606044 50.2202719,0.496060445 L50.2202719,0.496060445 L50.2202719,0.496060445 Z" id="Shape"></path>
                </g>
                <g id="pin" fill="#C05411">
                    <path d="M33,0 C15,0 0.3,14.4 0.3,32.5 C0.3,50.4 8.9,64 32.5,87 L33.6,87 C57.2,64 65.8,50.5 65.8,32.5 C65.8,14.4 51,0 33,0 L33,0 L33,0 Z" id="Shape"></path>
                </g>
                <g id="bridge" transform="translate(14.000000, 25.000000)" fill="#FFFFFF">
                    <path d="M9.81818182,11.4545455 L9.81818182,6.39818182 C8.65644326,5.86966133 7.55849664,5.21089336 6.54545455,4.43454545 L6.54545455,11.4545455 L9.81818182,11.4545455 L9.81818182,11.4545455 Z M6.54545455,18 L3.27272727,18 L3.27272727,14.7272727 L0,14.7272727 L0,11.4545455 L3.27272727,11.4545455 L3.27272727,0 L6.54545455,0 L6.54545455,2.34 C9.73283761,5.07509853 13.8000416,6.56834341 18,6.54545455 C22.1999584,6.56834341 26.2671624,5.07509853 29.4545455,2.34 L29.4545455,0 L32.7272727,0 L32.7272727,11.4545455 L36,11.4545455 L36,14.7272727 L32.7272727,14.7272727 L32.7272727,18 L29.4545455,18 L29.4545455,14.7272727 L6.54545455,14.7272727 L6.54545455,18 L6.54545455,18 Z M26.1818182,6.39818182 L26.1818182,11.4545455 L29.4545455,11.4545455 L29.4545455,4.43454545 C28.4415034,5.21089336 27.3435567,5.86966133 26.1818182,6.39818182 L26.1818182,6.39818182 Z M24.5454545,11.4545455 L24.5454545,7.06909091 C23.4810426,7.44630592 22.3860745,7.73099763 21.2727273,7.92 L21.2727273,11.4545455 L24.5454545,11.4545455 L24.5454545,11.4545455 Z M19.6363636,11.4545455 L19.6363636,8.18181818 L18,8.18181818 L16.3636364,8.18181818 L16.3636364,11.4545455 L19.6363636,11.4545455 L19.6363636,11.4545455 Z M14.7272727,11.4545455 L14.7272727,7.92 C13.6139255,7.73099763 12.5189574,7.44630592 11.4545455,7.06909091 L11.4545455,11.4545455 L14.7272727,11.4545455 L14.7272727,11.4545455 Z" id="Shape"></path>
                </g>
            </g>
        </g>
    </g>
</svg>