<?xml version="1.0" encoding="UTF-8"?>
<svg width="91px" height="89px" viewBox="0 0 91 89" version="1.1" xmlns="http://www.w3.org/2000/svg" xmlns:xlink="http://www.w3.org/1999/xlink">
    <!-- Generator: Sketch 41.2 (35397) - http://www.bohemiancoding.com/sketch -->
    <title>Untitled 3</title>
    <desc>Created with Sketch.</desc>
    <defs></defs>
    <g id="Page-1" stroke="none" stroke-width="1" fill="none" fill-rule="evenodd">
        <g id="ferry-pin" transform="translate(2.000000, 1.000000)">
            <g id="Slice-1">
                <g id="Page-1_1_">
                    <g id="passengerAirport">
                        <g id="Page-1">
                            <g id="pin-shadow-01" opacity="0.24" transform="translate(8.000000, 67.000000)" fill="#000000">
                                <path d="M51.2,1.5 C30.5,-1.11022302e-16 9,1.9 3.2,5.9 C-2.6,9.9 2.5,14 23.2,20.5 L24.5,20.6 C58.2,18 73.1,15.2 78.8,11.2 C84.5,7.3 72,3 51.2,1.5 L51.2,1.5 L51.2,1.5 Z" id="Shape"></path>
                            </g>
                            <g id="pin" stroke="#FFFFFF" fill="#3F7D97">
                                <path d="M33,0 C15,0 0.3,14.4 0.3,32.5 C0.3,50.4 8.9,64 32.5,87 L33.6,87 C57.2,64 65.8,50.5 65.8,32.5 C65.8,14.4 51,0 33,0 L33,0 L33,0 Z" id="Shape_1_"></path>
                            </g>
                        </g>
                    </g>
                    <path d="M22.2,23 L43.8,23 L43.8,30.1 L33,26.6 L22.2,30.1 L22.2,23 Z M18.5,46.4 L18.6,46.4 C21.5,46.4 24,44.8 25.8,42.8 C27.6,44.8 30.1,46.4 33,46.4 C35.9,46.4 38.4,44.8 40.2,42.8 C42,44.8 44.5,46.4 47.4,46.4 L47.5,46.4 L50.9,34.4 C51,34 51,33.4 50.8,33 C50.6,32.6 50.2,32.2 49.7,32.1 L47.4,31.3 L47.4,23 C47.4,21 45.8,19.4 43.8,19.4 L38.4,19.4 L38.4,14 L27.6,14 L27.6,19.4 L22.2,19.4 C20.2,19.4 18.6,21 18.6,23 L18.6,31.3 L16.3,32.1 C15.8,32.2 15.5,32.6 15.2,33 C15,33.4 14.9,33.9 15.1,34.4 L18.5,46.4 Z M47.4,50 C44.9,50 42.4,49.2 40.2,47.6 C35.8,50.7 30.2,50.7 25.8,47.6 C23.6,49.1 21.1,50 18.6,50 L15,50 L15,53.6 L18.6,53.6 C21.1,53.6 23.5,53 25.8,51.8 C30.3,54.1 35.7,54.1 40.2,51.8 C42.5,53 44.9,53.6 47.4,53.6 L51,53.6 L51,50 L47.4,50 L47.4,50 Z" id="Shape_2_" fill="#FFFFFF"></path>
                </g>
            </g>
        </g>
    </g>
</svg>