<?xml version="1.0" encoding="UTF-8" standalone="no"?>
<svg width="90px" height="90px" viewBox="0 0 90 90" version="1.1" xmlns="http://www.w3.org/2000/svg" xmlns:xlink="http://www.w3.org/1999/xlink">
    <!-- Generator: Sketch 39.1 (31720) - http://www.bohemiancoding.com/sketch -->
    <title>Slice 1</title>
    <desc>Created with Sketch.</desc>
    <defs></defs>
    <g id="Page-1" stroke="none" stroke-width="1" fill="none" fill-rule="evenodd">
        <g id="passengerAirport" transform="translate(1.000000, 1.000000)">
            <g id="Page-1">
                <g id="pin-shadow-01" opacity="0.24" transform="translate(9.000000, 68.000000)" fill="#000000">
                    <path d="M50.2202719,0.496060445 C29.4502719,-0.973939555 8.0002719,0.916060445 2.2202719,4.93606044 C-3.5597281,8.95606044 1.5502719,13.0760604 22.2202719,19.5560604 L23.5302719,19.6460604 C57.2302719,17.0260604 72.1002719,14.2760604 77.7902719,10.2960604 C83.4802719,6.31606044 70.9902719,1.96606044 50.2202719,0.496060445 L50.2202719,0.496060445 L50.2202719,0.496060445 Z" id="Shape"></path>
                </g>
                <g id="pin" fill="#3F7D97">
                    <path d="M33,0 C15,0 0.3,14.4 0.3,32.5 C0.3,50.4 8.9,64 32.5,87 L33.6,87 C57.2,64 65.8,50.5 65.8,32.5 C65.8,14.4 51,0 33,0 L33,0 L33,0 Z" id="Shape"></path>
                </g>
            </g>
        </g>
        <path d="M16,19 L52.0000017,19 L52.0000017,37.0000008 L44.8000014,37.0000008 L44.8000014,51.4000015 L41.2000012,51.4000015 L41.2000012,37.0000008 L26.8000005,37.0000008 L26.8000005,51.4000015 L23.2000003,51.4000015 L23.2000003,37.0000008 L16,37.0000008 L16,19 L16,19 Z M46.5460014,33.4000007 L48.4000015,31.5460006 L48.4000015,26.4700004 L41.4700012,33.4000007 L46.5460014,33.4000007 L46.5460014,33.4000007 Z M36.376001,33.4000007 L47.1760015,22.6000002 L42.1000012,22.6000002 L31.3000007,33.4000007 L36.376001,33.4000007 L36.376001,33.4000007 Z M26.1880005,33.4000007 L36.988001,22.6000002 L31.8940007,22.6000002 L21.0940002,33.4000007 L26.1880005,33.4000007 L26.1880005,33.4000007 Z M21.7240003,22.6000002 L19.6000002,24.7240003 L19.6000002,29.8000005 L26.8000005,22.6000002 L21.7240003,22.6000002 L21.7240003,22.6000002 Z" id="Shape" fill="#FFFFFF"></path>
    </g>
</svg>