<?xml version="1.0" encoding="UTF-8" standalone="no"?>
<svg width="90px" height="90px" viewBox="0 0 90 90" version="1.1" xmlns="http://www.w3.org/2000/svg" xmlns:xlink="http://www.w3.org/1999/xlink">
    <!-- Generator: Sketch 39.1 (31720) - http://www.bohemiancoding.com/sketch -->
    <title>Slice 1</title>
    <desc>Created with Sketch.</desc>
    <defs></defs>
    <g id="Page-1" stroke="none" stroke-width="1" fill="none" fill-rule="evenodd">
        <g id="pin-shadow-01" transform="translate(10.000000, 69.000000)" fill="#000000" opacity="0.24">
            <path d="M50.2202719,0.496060445 C29.4502719,-0.973939555 8.0002719,0.916060445 2.2202719,4.93606044 C-3.5597281,8.95606044 1.5502719,13.0760604 22.2202719,19.5560604 L23.5302719,19.6460604 C57.2302719,17.0260604 72.1002719,14.2760604 77.7902719,10.2960604 C83.4802719,6.31606044 70.9902719,1.96606044 50.2202719,0.496060445 L50.2202719,0.496060445 Z" id="Shape"></path>
        </g>
        <g id="pin" transform="translate(1.000000, 1.000000)" fill="#A83338">
            <path d="M33,0 C15,0 0.3,14.4 0.3,32.5 C0.3,50.4 8.9,64 32.5,87 L33.6,87 C57.2,64 65.8,50.5 65.8,32.5 C65.8,14.4 51,0 33,0 L33,0 Z" id="Shape"></path>
        </g>
        <g id="largeplane" transform="translate(15.000000, 16.000000)" fill="#FFFFFF">
            <path d="M28.2944386,36 L31.2650386,33.0294 L26.7986045,13.6678296 L34.9940897,5.47234437 C35.8395654,4.68452194 36.1875933,3.49803074 35.9016419,2.37833209 C35.6156905,1.25863345 34.7413666,0.384309476 33.6216679,0.098358086 C32.5019693,-0.187593304 31.3154781,0.160434627 30.5276556,1.00591028 L22.2478981,9.18032739 L2.97060003,4.7138933 L0,7.70556141 L15.6325193,15.9010466 L7.50023837,24.0754637 L2.23321704,23.3380807 L0,25.5712978 L6.69965113,29.2792808 L10.4287022,35.9789319 L12.6619193,33.7457149 L11.9034682,28.5629659 L20.1410896,20.3674807 L28.2944386,36 Z" id="Shape"></path>
        </g>
    </g>
</svg>