<?xml version="1.0" encoding="UTF-8" standalone="no"?>
<svg width="90px" height="90px" viewBox="0 0 90 90" version="1.1" xmlns="http://www.w3.org/2000/svg" xmlns:xlink="http://www.w3.org/1999/xlink">
    <!-- Generator: Sketch 39.1 (31720) - http://www.bohemiancoding.com/sketch -->
    <title>Slice 1</title>
    <desc>Created with Sketch.</desc>
    <defs></defs>
    <g id="Page-1" stroke="none" stroke-width="1" fill="none" fill-rule="evenodd">
        <g id="pin-shadow-01" transform="translate(10.000000, 69.000000)" fill="#000000" opacity="0.24">
            <path d="M50.2202719,0.496060445 C29.4502719,-0.973939555 8.0002719,0.916060445 2.2202719,4.93606044 C-3.5597281,8.95606044 1.5502719,13.0760604 22.2202719,19.5560604 L23.5302719,19.6460604 C57.2302719,17.0260604 72.1002719,14.2760604 77.7902719,10.2960604 C83.4802719,6.31606044 70.9902719,1.96606044 50.2202719,0.496060445 L50.2202719,0.496060445 Z" id="Shape"></path>
        </g>
        <g id="pin" transform="translate(1.000000, 1.000000)" fill="#397AAC">
            <path d="M33,0 C15,0 0.3,14.4 0.3,32.5 C0.3,50.4 8.9,64 32.5,87 L33.6,87 C57.2,64 65.8,50.5 65.8,32.5 C65.8,14.4 51,0 33,0 L33,0 Z" id="Shape"></path>
        </g>
        <g id="smallplane" transform="translate(34.001364, 33.420000) scale(-1, 1) translate(-34.001364, -33.420000) translate(16.000000, 15.000000)" fill="#FFFFFF">
            <g id="Group">
                <rect id="Rectangle-path" transform="translate(31.964362, 4.575043) rotate(-45.000000) translate(-31.964362, -4.575043) " x="30.938643" y="-0.0057198725" width="2.05143746" height="9.16152635"></rect>
                <path d="M30.8741338,31.6533159 C31.2914012,32.0145947 31.913387,32.0145947 32.3306544,31.6533159 L35.2231812,28.7827043 C35.6370108,28.3507774 35.6965057,27.6928569 35.3667818,27.1947064 L26.5250864,15.8140548 C26.3140223,15.6323113 26.1927901,15.368632 26.1927901,15.0913122 C26.1927901,14.8139924 26.3140223,14.550313 26.5250864,14.3685695 L30.6279613,10.29678 L31.489565,9.44170425 C31.5141596,9.06007718 31.3541853,8.68963199 31.0587631,8.44411582 L28.2688082,5.79745266 C27.9685671,5.51492818 27.6302725,5.27511996 27.2636038,5.08488949 L26.2583995,6.08247792 L22.1555246,10.1542674 C21.7203002,10.5649616 21.0573569,10.6240058 20.5554033,10.29678 L9.10838232,1.4813558 C8.92525133,1.27189085 8.65955896,1.1515772 8.38012202,1.1515772 C8.10068509,1.1515772 7.83499272,1.27189085 7.65186173,1.4813558 L4.75933491,4.35196739 C4.54827084,4.53371089 4.42703867,4.79739024 4.42703867,5.07471002 C4.42703867,5.3520298 4.54827084,5.61570915 4.75933491,5.79745266 L14.3600622,16.4451822 C14.7240991,16.8592882 14.7240991,17.4765615 14.3600622,17.8906674 L9.25198294,22.9193275 C8.81675854,23.3300217 8.15381529,23.3890658 7.65186173,23.0618401 L4.30801867,20.6187664 C3.71684706,20.4014798 3.0540226,20.5098237 2.56429682,20.9037917 L0.410287492,23.0618401 C0.199223422,23.2435836 0.0779912552,23.5072629 0.0779912552,23.7845827 C0.0779912552,24.0619025 0.199223422,24.3255819 0.410287492,24.5073254 L5.49785239,29.6174212 L6.95437299,31.0629064 L12.0214235,36.0915665 C12.2045545,36.3010314 12.4702469,36.4213451 12.7496838,36.4213451 C13.0291208,36.4213451 13.2948131,36.3010314 13.4779441,36.0915665 L15.6524678,33.933518 C16.0662974,33.5015911 16.1257923,32.8436706 15.7960684,32.3455201 L13.3343435,29.0270117 C12.9393004,28.5469418 13.0030829,27.8416069 13.4779441,27.4390138 L18.4629371,22.3492769 C18.6460681,22.139812 18.9117605,22.0194983 19.1911974,22.0194983 C19.4706344,22.0194983 19.7363267,22.139812 19.9194577,22.3492769 L30.8741338,31.6533159 Z" id="Shape"></path>
            </g>
        </g>
    </g>
</svg>