<?xml version="1.0" encoding="UTF-8" standalone="no"?>
<svg width="99px" height="91px" viewBox="0 0 99 91" version="1.1" xmlns="http://www.w3.org/2000/svg" xmlns:xlink="http://www.w3.org/1999/xlink">
    <!-- Generator: Sketch 39.1 (31720) - http://www.bohemiancoding.com/sketch -->
    <title>Slice 1</title>
    <desc>Created with Sketch.</desc>
    <defs></defs>
    <g id="Page-1" stroke="none" stroke-width="1" fill="none" fill-rule="evenodd">
        <g id="restarea-pin" transform="translate(4.000000, 3.000000)">
            <g id="Page-1">
                <g id="passengerAirport">
                    <g id="Page-1">
                        <g id="pin-shadow-01" opacity="0.24" transform="translate(9.000000, 68.000000)" fill="#000000">
                            <path d="M50.2202719,0.496060445 C29.4502719,-0.973939555 8.0002719,0.916060445 2.2202719,4.93606044 C-3.5597281,8.95606044 1.5502719,13.0760604 22.2202719,19.5560604 L23.5302719,19.6460604 C57.2302719,17.0260604 72.1002719,14.2760604 77.7902719,10.2960604 C83.4802719,6.31606044 70.9902719,1.96606044 50.2202719,0.496060445 L50.2202719,0.496060445 L50.2202719,0.496060445 L50.2202719,0.496060445 Z" id="Shape"></path>
                        </g>
                        <g id="pin" fill="#3F7D97">
                            <path d="M33,0 C15,0 0.3,14.4 0.3,32.5 C0.3,50.4 8.9,64 32.5,87 L33.6,87 C57.2,64 65.8,50.5 65.8,32.5 C65.8,14.4 51,0 33,0 L33,0 L33,0 L33,0 Z" id="Shape"></path>
                        </g>
                    </g>
                </g>
                <g id="restarea" transform="translate(14.000000, 20.000000)" fill="#FFFFFF">
                    <g id="Group">
                        <path d="M38,11.6111111 L29.5555555,11.6111111 L26.0722222,4.22222222 L30.6111111,4.22222222 L30.6111111,0 L7.38888889,0 L7.38888889,4.22222222 L11.9488889,4.22222222 L8.44444445,11.6111111 L0,11.6111111 L0,15.8333333 L6.48111111,15.8333333 L2.61777778,24.0244445 L7.28333333,24.0244445 L11.1466667,15.8544445 L26.8744445,15.8544445 L30.7377778,24.0455555 L35.4033333,24.0455555 L31.54,15.8755555 L38,15.8755555 L38,11.6533333 L38,11.6111111 L38,11.6111111 Z M13.1311111,11.6111111 L16.6144445,4.22222222 L21.3855555,4.22222222 L24.8688889,11.6111111 L13.1311111,11.6111111 L13.1311111,11.6111111 L13.1311111,11.6111111 Z" id="Shape"></path>
                    </g>
                </g>
            </g>
        </g>
    </g>
</svg>