<?xml version="1.0" encoding="utf-8"?>
<!-- Generator: Adobe Illustrator 19.2.1, SVG Export Plug-In . SVG Version: 6.00 Build 0)  -->
<svg version="1.1" id="Layer_1" xmlns="http://www.w3.org/2000/svg" xmlns:xlink="http://www.w3.org/1999/xlink" x="0px" y="0px"
	 viewBox="0 0 24 24" style="enable-background:new 0 0 24 24;" xml:space="preserve">
<path d="M6.5,4.3c-0.6,0-1,0.4-1,1s0.4,1,1,1c0.6,0,1-0.4,1-1S7.1,4.3,6.5,4.3"/>
<g>
	<path d="M11.8,2c1.1,0.9,2,2,2.5,3.3C13.2,8,10.6,10,7.5,10.4V22h16V2H11.8z M16.5,20h-2v-4h2V20z M16.5,14h-2v-4h2V14z M16.5,8h-2
		V4h2V8z"/>
</g>
<g>
	<path d="M6.5,1.3c-2.7,0-5.1,1.7-6,4c0.9,2.3,3.3,4,6,4c2.7,0,5.1-1.7,6-4C11.6,3,9.3,1.3,6.5,1.3z M6.5,7.8C5.2,7.8,4,6.7,4,5.3
		s1.1-2.5,2.5-2.5C7.9,2.8,9,3.9,9,5.3S7.9,7.8,6.5,7.8z"/>
</g>
</svg>
