<?xml version="1.0" encoding="UTF-8"?>
<svg width="90px" height="88px" viewBox="0 0 90 88" version="1.1" xmlns="http://www.w3.org/2000/svg" xmlns:xlink="http://www.w3.org/1999/xlink">
    <!-- Generator: Sketch 41.2 (35397) - http://www.bohemiancoding.com/sketch -->
    <title>Untitled</title>
    <desc>Created with Sketch.</desc>
    <defs></defs>
    <g id="Page-1" stroke="none" stroke-width="1" fill="none" fill-rule="evenodd">
        <g id="scenic-pin" transform="translate(1.000000, 0.000000)">
            <g id="Slice-1">
                <g id="Page-1_1_">
                    <g id="passengerAirport">
                        <g id="Page-1">
                            <g id="pin-shadow-01" opacity="0.24" transform="translate(8.000000, 67.000000)" fill="#000000">
                                <path d="M51.2,1.5 C30.5,-1.11022302e-16 9,1.9 3.2,5.9 C-2.6,9.9 2.5,14 23.2,20.5 L24.5,20.6 C58.2,18 73.1,15.2 78.8,11.2 C84.5,7.3 72,3 51.2,1.5 L51.2,1.5 Z" id="Shape"></path>
                            </g>
                            <g id="pin" fill="#3F7D97">
                                <path d="M33,0 C15,0 0.3,14.4 0.3,32.5 C0.3,50.4 8.9,64 32.5,87 L33.6,87 C57.2,64 65.8,50.5 65.8,32.5 C65.8,14.4 51,0 33,0 L33,0 Z" id="Shape_1_"></path>
                            </g>
                        </g>
                    </g>
                </g>
                <path d="M36.3,17.8 L28.3,28.5 L34.4,36.6 L31,39.2 L21.4,26.4 L8.5,43.5 L55.6,43.5 L36.3,17.8 Z" id="Shape" fill="#FFFFFF"></path>
            </g>
        </g>
    </g>
</svg>