<?xml version="1.0" encoding="UTF-8" standalone="no"?>
<svg width="99px" height="91px" viewBox="0 0 99 91" version="1.1" xmlns="http://www.w3.org/2000/svg" xmlns:xlink="http://www.w3.org/1999/xlink">
    <!-- Generator: Sketch 39.1 (31720) - http://www.bohemiancoding.com/sketch -->
    <title>Slice 1</title>
    <desc>Created with Sketch.</desc>
    <defs></defs>
    <g id="Page-1" stroke="none" stroke-width="1" fill="none" fill-rule="evenodd">
        <g id="restarea-pin" transform="translate(4.000000, 3.000000)">
            <g id="Page-1">
                <g id="passengerAirport">
                    <g id="Page-1">
                        <g id="pin-shadow-01" opacity="0.24" transform="translate(9.000000, 68.000000)" fill="#000000">
                            <path d="M50.2202719,0.496060445 C29.4502719,-0.973939555 8.0002719,0.916060445 2.2202719,4.93606044 C-3.5597281,8.95606044 1.5502719,13.0760604 22.2202719,19.5560604 L23.5302719,19.6460604 C57.2302719,17.0260604 72.1002719,14.2760604 77.7902719,10.2960604 C83.4802719,6.31606044 70.9902719,1.96606044 50.2202719,0.496060445 L50.2202719,0.496060445 L50.2202719,0.496060445 L50.2202719,0.496060445 Z" id="Shape"></path>
                        </g>
                        <g id="pin" fill="#588023">
                            <path d="M33,0 C15,0 0.3,14.4 0.3,32.5 C0.3,50.4 8.9,64 32.5,87 L33.6,87 C57.2,64 65.8,50.5 65.8,32.5 C65.8,14.4 51,0 33,0 L33,0 L33,0 L33,0 Z" id="Shape"></path>
                        </g>
                    </g>
                </g>
            </g>
        </g>
        <path d="M42,48.6666667 L32,45.15 L32,25.3333333 L42,28.85 L42,48.6666667 Z M51.1666667,22 L50.9,22 L42,25.5 L32,22 L22.6,25.1666667 C22.25,25.2833333 22,25.5833333 22,25.9666667 L22,51.1666667 C22,51.626904 22.373096,52 22.8333333,52 C22.9166667,52 23.0166667,52 23.1,51.95 L32,48.5 L42,52 L51.4,48.8333333 C51.75,48.6666667 52,48.4166667 52,48.0333333 L52,22.8333333 C52,22.373096 51.626904,22 51.1666667,22 L51.1666667,22 Z" id="Shape" fill="#FFFFFF"></path>
    </g>
</svg>