<?xml version="1.0" encoding="UTF-8" standalone="no"?>
<svg width="97px" height="92px" viewBox="0 0 97 92" version="1.1" xmlns="http://www.w3.org/2000/svg" xmlns:xlink="http://www.w3.org/1999/xlink">
    <!-- Generator: Sketch 39.1 (31720) - http://www.bohemiancoding.com/sketch -->
    <title>Slice 1</title>
    <desc>Created with Sketch.</desc>
    <defs></defs>
    <g id="Page-1" stroke="none" stroke-width="1" fill="none" fill-rule="evenodd">
        <g id="passengerAirport" transform="translate(6.000000, 4.000000)">
            <g id="Page-1">
                <g id="pin-shadow-01" opacity="0.24" transform="translate(9.000000, 68.000000)" fill="#000000">
                    <path d="M50.2202719,0.496060445 C29.4502719,-0.973939555 8.0002719,0.916060445 2.2202719,4.93606044 C-3.5597281,8.95606044 1.5502719,13.0760604 22.2202719,19.5560604 L23.5302719,19.6460604 C57.2302719,17.0260604 72.1002719,14.2760604 77.7902719,10.2960604 C83.4802719,6.31606044 70.9902719,1.96606044 50.2202719,0.496060445 L50.2202719,0.496060445 L50.2202719,0.496060445 Z" id="Shape"></path>
                </g>
                <g id="pin" fill="#C05411">
                    <path d="M33,0 C15,0 0.3,14.4 0.3,32.5 C0.3,50.4 8.9,64 32.5,87 L33.6,87 C57.2,64 65.8,50.5 65.8,32.5 C65.8,14.4 51,0 33,0 L33,0 L33,0 Z" id="Shape"></path>
                </g>
            </g>
        </g>
        <g id="welcomecenter" transform="translate(21.000000, 20.000000)" fill="#FFFFFF">
            <rect id="Rectangle-path" x="24.984" y="0" width="1.8" height="11.034"></rect>
            <polygon id="Shape" points="32.904 1.188 29.844 0 26.784 0 26.784 6.354 29.844 6.354 32.904 7.542 35.946 7.542 35.946 1.188"></polygon>
            <polygon id="Shape" points="18 2.484 0 18.684 5.4 18.684 5.4 33.084 14.526 33.084 14.526 22.05 21.474 22.05 21.474 33.084 30.6 33.084 30.6 18.684 36 18.684"></polygon>
        </g>
    </g>
</svg>